<svg width="60" height="46" viewBox="0 0 60 46" fill="none" xmlns="http://www.w3.org/2000/svg">
<g clip-path="url(#clip0_1_959)">
<g clip-path="url(#clip1_1_959)">
<g clip-path="url(#clip2_1_959)">
<path d="M55 0.830078H5.00004C2.24238 0.830078 0 3.07246 0 5.83012V40.8301C0 43.5877 2.24238 45.8301 5.00004 45.8301H55C57.7576 45.8301 60 43.5877 60 40.8301V5.83012C60 3.07246 57.7576 0.830078 55 0.830078ZM5.00004 3.33004H55C55.1843 3.33004 55.3466 3.39719 55.5194 3.43516C51.1907 7.39691 36.8371 20.528 31.8141 25.0537C31.421 25.4077 30.7875 25.8301 30.0001 25.8301C29.2127 25.8301 28.5792 25.4077 28.1848 25.0525C23.1623 20.5276 8.80793 7.39574 4.47984 3.43539C4.65305 3.39743 4.8157 3.33004 5.00004 3.33004ZM2.49996 40.8301V5.83012C2.49996 5.5852 2.57379 5.36301 2.63988 5.13918C5.953 8.17152 15.9683 17.3337 22.4624 23.2391C15.9894 28.7993 5.97152 38.2972 2.63203 41.4816C2.57309 41.269 2.49996 41.0611 2.49996 40.8301ZM55 43.3301H5.00004C4.80035 43.3301 4.62281 43.2605 4.43637 43.216C7.88715 39.9263 17.9688 30.3739 24.328 24.9337C25.157 25.6857 25.9142 26.3713 26.5112 26.9092C27.5415 27.8395 28.7475 28.3301 30 28.3301C31.2525 28.3301 32.4585 27.8393 33.4875 26.9104C34.0847 26.3723 34.8425 25.686 35.672 24.9337C42.0315 30.3733 52.1117 39.925 55.5636 43.216C55.3772 43.2605 55.1998 43.3301 55 43.3301ZM57.5 40.8301C57.5 41.0611 57.4269 41.269 57.3681 41.4816C54.0273 38.2955 44.0106 28.7988 37.5377 23.2393C44.0321 17.3338 54.0458 8.17246 57.3602 5.13895C57.4262 5.36277 57.5 5.58508 57.5 5.83V40.8301Z" fill="#307BC4"/>
</g>
</g>
</g>
<defs>
<clipPath id="clip0_1_959">
<rect width="60" height="45" fill="white" transform="translate(0 0.830078)"/>
</clipPath>
<clipPath id="clip1_1_959">
<rect width="60" height="45" fill="white" transform="translate(0 0.830078)"/>
</clipPath>
<clipPath id="clip2_1_959">
<rect width="60" height="45" fill="white" transform="translate(0 0.830078)"/>
</clipPath>
</defs>
</svg>
