<svg width="101" height="100" viewBox="0 0 101 100" fill="none" xmlns="http://www.w3.org/2000/svg">
<rect x="0.75" width="100" height="100" rx="50" fill="#EBFAF1"/>
<g clip-path="url(#clip0_1_239)">
<path d="M35.6171 61.1388C35.9562 60.8054 36.3229 60.5462 36.6987 60.3518C36.8453 60.0184 37.0928 59.7407 37.3953 59.5647C37.4136 58.2314 37.6153 57.0832 37.9911 56.1296C33.6923 58.3332 30.75 62.8332 30.75 68.0277C30.75 74.6758 35.5529 74.9999 41.8407 74.9999C42.5282 74.9999 43.234 74.9999 43.9489 74.9999H57.5419C58.2569 74.9999 58.9626 74.9999 59.6501 74.9999C65.9379 74.9999 70.75 74.6758 70.75 68.0277C70.75 62.7777 67.7436 58.2314 63.3715 56.0554C63.7931 57.0462 64.0405 58.2499 64.0955 59.6481C65.5255 59.9814 66.5979 61.2684 66.5979 62.8147C66.5979 64.6111 65.1496 66.0647 63.3806 66.0647C61.6024 66.0647 60.1634 64.6111 60.1634 62.8147C60.1634 61.2869 61.2083 60.0092 62.6106 59.6573C62.5465 58.2684 62.2257 56.1573 60.8784 55.1111C60.1909 54.9258 59.4851 54.7962 58.761 54.7314C58.706 57.1666 50.75 63.1666 50.75 63.1666C50.75 63.1666 42.794 57.1666 42.739 54.7314C41.9324 54.8054 41.1533 54.9536 40.3925 55.1666C39.4118 55.9536 38.9076 57.4166 38.8801 59.5369C39.1643 59.7036 39.4026 59.9628 39.5401 60.2869C40.5942 60.7869 41.5291 61.8518 42.244 63.3611C42.3632 63.6203 42.3815 63.9073 42.2899 64.1666C42.7207 65.2777 42.959 66.4999 42.959 67.5184C42.959 68.9536 42.959 70.3054 41.41 70.6573C41.245 70.7962 41.0341 70.8796 40.8142 70.8796H39.7968C39.2743 70.8796 38.8527 70.4536 38.8527 69.9258V69.8611C38.8893 69.3703 39.3018 68.9814 39.7876 68.9814H40.8233C40.9333 68.9814 41.0341 68.9999 41.135 69.0369C41.1991 69.0184 41.2175 68.9999 41.2175 68.9999C41.3366 68.7962 41.3366 67.9351 41.3366 67.5277C41.3366 66.6943 41.135 65.6943 40.7683 64.7592C40.585 64.6481 40.4292 64.4907 40.3375 64.2962C39.7143 62.9721 38.8618 62.1111 38.1652 62.1111C37.4594 62.1111 36.5612 63.0369 35.9379 64.4166C35.8371 64.6388 35.6538 64.8239 35.4338 64.9351C35.1038 65.8239 34.9296 66.7499 34.9296 67.5277C34.9296 67.8703 34.9296 68.7869 35.058 69.0092C35.058 69.0092 35.0855 69.0277 35.168 69.0462C35.2779 69.0092 35.3879 68.9814 35.5071 68.9814H36.5429C37.0195 68.9814 37.4228 69.3424 37.4778 69.8239L37.4869 69.8332V69.8981C37.4869 70.4628 37.0653 70.8888 36.552 70.8888H35.5071C35.3054 70.8888 35.1038 70.8147 34.9388 70.6943C34.343 70.5832 33.9306 70.3147 33.6648 69.8888C33.344 69.3703 33.289 68.6851 33.289 67.5369C33.289 66.5277 33.5181 65.3611 33.9397 64.2407C33.8756 63.9999 33.8939 63.7499 34.0039 63.5277C34.4439 62.5647 35.003 61.7407 35.6171 61.1388ZM57.1845 68.9999H64.1139C64.6639 68.9999 65.1037 69.4443 65.1037 69.9999C65.1037 70.5554 64.6639 70.9999 64.1139 70.9999H57.1845C56.6345 70.9999 56.1945 70.5554 56.1945 69.9999C56.1945 69.4443 56.6345 68.9999 57.1845 68.9999Z" fill="#4CD080"/>
<path d="M60.5666 39.6482C60.1084 39.6482 59.43 39.4908 58.7242 38.7316C58.1926 38.3149 54.6912 35.6667 50.75 35.6667C46.8361 35.6667 43.298 38.3242 42.7756 38.7316C42.0698 39.4816 41.3915 39.6389 40.9332 39.6389C40.8691 39.6389 40.8141 39.6389 40.7591 39.6297C40.475 39.6019 40.1725 39.5001 39.8975 39.3242C39.8058 39.9074 39.7508 40.5001 39.7508 41.1112C39.7508 47.2501 44.6821 56.4908 50.7591 56.4908C56.8361 56.4908 61.7674 47.2501 61.7674 41.1112C61.7674 40.5001 61.7124 39.9074 61.6207 39.3242C61.3457 39.5093 61.0341 39.6112 60.75 39.6389C60.6857 39.6482 60.6307 39.6482 60.5666 39.6482Z" fill="#4CD080"/>
<path d="M63.3805 64.3242C64.2006 64.3242 64.8654 63.6527 64.8654 62.8242C64.8654 61.9958 64.2006 61.3242 63.3805 61.3242C62.5604 61.3242 61.8956 61.9958 61.8956 62.8242C61.8956 63.6527 62.5604 64.3242 63.3805 64.3242Z" fill="#4CD080"/>
<path d="M59.1641 26.6759C59.1641 26.6759 55.1404 25.213 51.5106 25.0278C51.254 25.0185 51.0065 25 50.7499 25C50.4933 25 50.2458 25.0185 49.9891 25.0185C46.3594 25.213 42.3356 26.6667 42.3356 26.6667C41.2448 27.0648 40.3557 28.3519 40.3557 29.5278V37.0741C40.3557 37.75 40.5665 38.1111 40.8873 38.1389C40.9057 38.1389 40.9148 38.1389 40.9332 38.1389C41.1623 38.1389 41.4465 37.9815 41.7581 37.6296C41.7581 37.6296 45.9011 34.1667 50.7499 34.1667C55.5986 34.1667 59.7416 37.6296 59.7416 37.6296C60.0532 37.9815 60.3374 38.1389 60.5665 38.1389C60.5849 38.1389 60.594 38.1389 60.6124 38.1389C60.9331 38.1111 61.144 37.75 61.144 37.0741V29.537C61.144 28.3611 60.2549 27.0648 59.1641 26.6759ZM53.353 30.6389H51.7856V32.2407C51.7856 32.4074 51.6665 32.537 51.529 32.537H49.9799C49.8333 32.537 49.7233 32.4074 49.7233 32.2407V30.6389H48.1559C48.0001 30.6389 47.8718 30.5185 47.8718 30.3704V28.787C47.8718 28.6389 48.0001 28.5185 48.1559 28.5185H49.7233V26.9259C49.7233 26.7593 49.8424 26.6296 49.9799 26.6296H51.529C51.6756 26.6296 51.7856 26.7593 51.7856 26.9259V28.5278H53.353C53.5087 28.5278 53.6371 28.6481 53.6371 28.7963V30.3704C53.6371 30.5185 53.5087 30.6389 53.353 30.6389Z" fill="#4CD080"/>
</g>
<defs>
<clipPath id="clip0_1_239">
<rect width="50" height="50" fill="white" transform="translate(25.75 25)"/>
</clipPath>
</defs>
</svg>
