<svg width="101" height="100" viewBox="0 0 101 100" fill="none" xmlns="http://www.w3.org/2000/svg">
<rect x="0.25" width="100" height="100" rx="50" fill="#EBF7FF"/>
<g clip-path="url(#clip0_1_192)">
<path d="M64.621 27.3595C63.379 26.1756 61.7851 25.6099 60.1808 25.6099C58.38 25.6099 56.548 26.3328 55.1922 27.7052L54.6127 28.2919L54.0227 27.7052C52.6669 26.3328 50.835 25.6099 49.0341 25.6099C47.4299 25.6099 45.836 26.1756 44.594 27.3595C41.8617 29.9683 41.8099 34.3267 44.4491 36.9983L54.6127 47.2866L64.7762 36.9983C67.405 34.3267 67.3533 29.9683 64.621 27.3595Z" fill="#2AA7FF"/>
<path d="M74.5979 52.5248C73.0351 51.4561 71.1929 51.76 69.5679 52.7134C67.9327 53.6564 58.5765 61.755 58.5765 61.755H49.3651C48.9407 61.755 48.475 61.2626 48.475 60.8329C48.475 60.3301 48.9098 59.932 49.3651 59.932H54.9954C56.9722 59.932 59.1767 58.6328 59.1767 56.3175C59.1767 53.8554 56.9722 52.7029 54.9954 52.7029C51.5696 52.7029 50.9072 52.7134 50.9072 52.7134C49.5411 52.7134 48.1438 52.6295 47.0778 52.0533C45.6495 51.3095 44.0039 50.8904 42.2444 50.8904C39.2948 50.8904 36.6555 52.0848 34.8443 53.9601L25.25 63.5465L35.9621 74.3901L39.5328 70.7756H57.6035C59.4044 70.7756 61.1432 70.105 62.4783 68.9003L74.7118 55.0078C75.4673 54.3268 75.4156 53.0905 74.5979 52.5248Z" fill="#2AA7FF"/>
</g>
<defs>
<clipPath id="clip0_1_192">
<rect width="50" height="50" fill="white" transform="translate(25.25 25)"/>
</clipPath>
</defs>
</svg>
