<svg width="42" height="38" viewBox="0 0 42 38" fill="none" xmlns="http://www.w3.org/2000/svg">
<path d="M25.8809 3.71925C26.2207 3.71925 26.4961 3.44379 26.4961 3.10402V1.24609C26.4961 0.90632 26.2207 0.630859 25.8809 0.630859C25.541 0.630859 25.2656 0.90632 25.2656 1.24609V3.10402C25.2656 3.44379 25.541 3.71925 25.8809 3.71925ZM22.8536 3.83344C23.0222 4.13253 23.4002 4.23137 23.6917 4.06698C23.9877 3.90005 24.0923 3.52484 23.9253 3.22887L23.1451 1.84582C22.9783 1.54994 22.6029 1.44543 22.307 1.61228C22.011 1.77921 21.9064 2.15443 22.0734 2.45039L22.8536 3.83344ZM28.0701 4.06698C28.3609 4.23096 28.7396 4.13253 28.9082 3.83344L29.6884 2.45039C29.8554 2.15443 29.7508 1.77921 29.4548 1.61228C29.1591 1.44535 28.7836 1.54994 28.6167 1.84582L27.8365 3.22887C27.6695 3.52484 27.7741 3.90005 28.0701 4.06698ZM39.8968 20.9667L34.9093 19.3047C34.6266 19.2104 34.3991 18.9977 34.2855 18.721L31.5063 11.9593C31.0307 10.8012 29.9138 10.0528 28.6608 10.0528H28.6289V8.94522C28.6289 7.42994 27.3961 6.19717 25.8809 6.19717C24.3656 6.19717 23.1328 7.42994 23.1328 8.94522V10.0528H18.9524C18.9514 10.0528 18.9503 10.0526 18.9492 10.0526C18.9482 10.0526 18.9471 10.0528 18.946 10.0528H3.07617C1.37993 10.0528 0 11.4327 0 13.129V17.1894C0 17.5291 0.275379 17.8046 0.615234 17.8046C0.95509 17.8046 1.23047 17.5291 1.23047 17.1894V13.129C1.23047 12.1112 2.05849 11.2833 3.07617 11.2833H18.334V24.5722H1.23047V20.0605C1.23047 19.7207 0.95509 19.4452 0.615234 19.4452C0.275379 19.4452 0 19.7207 0 20.0605V29.7403C0 31.4365 1.37993 32.8165 3.07617 32.8165H4.65216C4.95756 35.3768 7.1409 37.369 9.78223 37.369C12.4236 37.369 14.6069 35.3768 14.9123 32.8165H26.1238C26.4292 35.3768 28.6126 37.369 31.2539 37.369C33.8952 37.369 36.0786 35.3768 36.384 32.8165H38.9238C40.6201 32.8165 42 31.4365 42 29.7403V23.8849C42 22.5584 41.1548 21.3856 39.8968 20.9667ZM9.78223 36.1386C7.61102 36.1386 5.84473 34.3722 5.84473 32.2011C5.84473 30.03 7.61102 28.2636 9.78223 28.2636C11.9534 28.2636 13.7197 30.03 13.7197 32.2011C13.7197 34.3722 11.9534 36.1386 9.78223 36.1386ZM18.334 31.586H14.9123C14.6071 29.0255 12.4236 27.0331 9.78223 27.0331C7.1409 27.0331 4.95739 29.0255 4.65216 31.586H3.07617C2.05849 31.586 1.23047 30.7581 1.23047 29.7403V25.8026H18.334V31.586ZM24.3633 8.94522C24.3633 8.10842 25.0441 7.42764 25.8809 7.42764C26.7177 7.42764 27.3984 8.10842 27.3984 8.94522V10.0528H24.3633V8.94522ZM31.2539 36.1386C29.0827 36.1386 27.3164 34.3722 27.3164 32.2011C27.3164 30.03 29.0827 28.2636 31.2539 28.2636C33.4251 28.2636 35.1914 30.03 35.1914 32.2011C35.1914 34.3722 33.4251 36.1386 31.2539 36.1386ZM40.7695 24.5722H31.3854C31.0455 24.5722 30.7702 24.8476 30.7702 25.1874C30.7702 25.5272 31.0455 25.8026 31.3854 25.8026H40.7695V29.7403C40.7695 30.7581 39.9415 31.586 38.9238 31.586H36.384C36.0787 29.0255 33.8952 27.0331 31.2539 27.0331C28.6126 27.0331 26.4291 29.0255 26.1238 31.586H19.5645V25.8026H28.5143C28.8542 25.8026 29.1295 25.5272 29.1295 25.1874C29.1295 24.8476 28.8542 24.5722 28.5143 24.5722H19.5645V11.2833H28.6609C29.4127 11.2833 30.0829 11.7321 30.3682 12.4269L33.1474 19.1887C33.3973 19.7968 33.8977 20.2645 34.5203 20.472L39.5079 22.134C40.2625 22.3853 40.7695 23.089 40.7695 23.8848V24.5722ZM29.2211 13.1561C29.064 12.7658 28.6906 12.5136 28.2699 12.5136H21.8203C21.2549 12.5136 20.7949 12.9735 20.7949 13.539V19.2401C20.7949 19.8056 21.2549 20.2655 21.8203 20.2655H30.5647C31.2726 20.2708 31.786 19.5141 31.5159 18.8572L29.2211 13.1561ZM22.0254 19.0351V13.744H28.1313L30.2611 19.0351H22.0254ZM31.2539 30.3554C30.2362 30.3554 29.4082 31.1833 29.4082 32.2011C29.4082 33.2188 30.2362 34.0468 31.2539 34.0468C32.2716 34.0468 33.0996 33.2188 33.0996 32.2011C33.0996 31.1833 32.2716 30.3554 31.2539 30.3554ZM31.2539 32.8163C30.9146 32.8163 30.6387 32.5404 30.6387 32.2011C30.6387 31.8618 30.9146 31.5858 31.2539 31.5858C31.5932 31.5858 31.8691 31.8618 31.8691 32.2011C31.8691 32.5404 31.5932 32.8163 31.2539 32.8163ZM10.5205 12.5136H9.04395C8.4333 12.5136 7.93652 13.0104 7.93652 13.621V16.0819H5.47559C4.86495 16.0819 4.36816 16.5787 4.36816 17.1894V18.6659C4.36816 19.2766 4.86495 19.7733 5.47559 19.7733H7.93652V22.2343C7.93652 22.8449 8.4333 23.3417 9.04395 23.3417H10.5205C11.1311 23.3417 11.6279 22.8449 11.6279 22.2343V19.7733H14.0889C14.6995 19.7733 15.1963 19.2766 15.1963 18.6659V17.1894C15.1963 16.5787 14.6995 16.0819 14.0889 16.0819H11.6279V13.621C11.6279 13.0104 11.1311 12.5136 10.5205 12.5136ZM13.9658 17.3124V18.5429H11.2588C10.7838 18.5429 10.3975 18.9292 10.3975 19.4042V22.1112H9.16699V19.4042C9.16699 18.9292 8.78063 18.5429 8.30566 18.5429H5.59863V17.3124H8.30566C8.78063 17.3124 9.16699 16.926 9.16699 16.4511V13.744H10.3975V16.4511C10.3975 16.926 10.7838 17.3124 11.2588 17.3124H13.9658ZM9.78223 30.3554C8.76455 30.3554 7.93652 31.1833 7.93652 32.2011C7.93652 33.2188 8.76455 34.0468 9.78223 34.0468C10.7999 34.0468 11.6279 33.2188 11.6279 32.2011C11.6279 31.1833 10.7999 30.3554 9.78223 30.3554ZM9.78223 32.8163C9.44295 32.8163 9.16699 32.5404 9.16699 32.2011C9.16699 31.8618 9.44295 31.5858 9.78223 31.5858C10.1215 31.5858 10.3975 31.8618 10.3975 32.2011C10.3975 32.5404 10.1215 32.8163 9.78223 32.8163Z" fill="white"/>
</svg>
