<svg width="26" height="26" viewBox="0 0 26 26" fill="none" xmlns="http://www.w3.org/2000/svg">
<path d="M12.9865 23.467C13.6471 23.4678 14.2915 23.2628 14.8302 22.8805C15.3689 22.4982 15.7751 21.9575 15.9923 21.3337H9.98063C10.1979 21.9575 10.6041 22.4982 11.1428 22.8805C11.6815 23.2628 12.3259 23.4678 12.9865 23.467ZM20.4531 15.5588V10.6671C20.4531 7.23562 18.1224 4.34497 14.9651 3.47565C14.6526 2.68845 13.8889 2.13379 12.9865 2.13379C12.0841 2.13379 11.3204 2.68845 11.0078 3.47565C7.85051 4.34604 5.51986 7.23562 5.51986 10.6671V15.5588L3.69907 17.3796C3.59982 17.4784 3.52112 17.596 3.46748 17.7254C3.41384 17.8548 3.38633 17.9936 3.38654 18.1337V19.2003C3.38654 19.4832 3.49892 19.7546 3.69895 19.9546C3.89899 20.1546 4.1703 20.267 4.4532 20.267H21.5198C21.8027 20.267 22.074 20.1546 22.274 19.9546C22.474 19.7546 22.5864 19.4832 22.5864 19.2003V18.1337C22.5866 17.9936 22.5591 17.8548 22.5055 17.7254C22.4518 17.596 22.3731 17.4784 22.2739 17.3796L20.4531 15.5588Z" fill="#0D0D0D" fill-opacity="0.75"/>
<circle cx="19.0255" cy="5.20926" r="2.80496" fill="#F9A135"/>
</svg>
