<svg width="34" height="34" viewBox="0 0 34 34" fill="none" xmlns="http://www.w3.org/2000/svg">
<g clip-path="url(#clip0_1_53)">
<path d="M2.77271 4.17659C1.02965 6.26693 0.618891 9.18616 1.70642 11.68L1.56532 11.8211C1.17634 12.21 1.17634 12.8407 1.56532 13.2297C1.75981 13.4241 2.01473 13.5214 2.26958 13.5214C2.52443 13.5214 3.62047 12.5831 3.62047 12.5831C3.62066 12.5829 12.0933 4.11026 12.0935 4.11006L12.7401 3.46343C13.1291 3.07445 13.1291 2.44383 12.7401 2.05485C12.3512 1.66586 11.7205 1.66586 11.3315 2.05485L11.1904 2.19595C8.91384 1.20317 6.28292 1.45962 4.25135 2.83806L1.70496 0.291738C1.31605 -0.0972459 0.68536 -0.0972459 0.296376 0.291738C-0.0926072 0.680721 -0.0926072 1.31134 0.296376 1.70033L2.77271 4.17659Z" fill="white"/>
<path d="M22.5114 28.0903C23.0614 28.0903 23.5074 27.6443 23.5074 27.0942V25.1022H10.4926V27.0942C10.4926 27.6443 10.9385 28.0903 11.4886 28.0903H22.5114Z" fill="white"/>
<path d="M33.0029 19.126H28.0891C27.5413 19.126 27.0931 19.5742 27.0931 20.122C27.0931 19.5735 26.6457 19.126 26.0971 19.126H9.76216C9.21361 19.126 8.76619 19.5734 8.76613 20.1219C8.76613 19.5742 8.31791 19.126 7.7701 19.126H0.997084C0.449267 19.126 0.00105286 19.5742 0.00105286 20.122V22.1141C0.00105286 22.6642 0.447009 23.1102 0.997084 23.1102H33.0029C33.553 23.1102 33.9989 22.6642 33.9989 22.1141V20.122C33.9989 19.5742 33.5507 19.126 33.0029 19.126Z" fill="white"/>
<path d="M25.1338 32.0079H20.6521V30.0823H13.3479V32.0079H8.40051C7.85044 32.0079 7.40448 32.4539 7.40448 33.004C7.40448 33.554 7.85044 34 8.40051 34H25.1338C25.6838 34 26.1298 33.554 26.1298 33.004C26.1298 32.4539 25.6839 32.0079 25.1338 32.0079Z" fill="white"/>
</g>
<defs>
<clipPath id="clip0_1_53">
<rect width="34" height="34" fill="white"/>
</clipPath>
</defs>
</svg>
