<svg width="40" height="40" viewBox="0 0 40 40" fill="none" xmlns="http://www.w3.org/2000/svg">
<path d="M13.6287 14.8379C13.5557 14.8379 13.4836 14.8232 13.4165 14.7945C13.3494 14.7659 13.2889 14.724 13.2384 14.6714C12.6979 14.1082 10.9325 12.0946 10.8514 9.83411C10.8466 9.69886 10.8927 9.56674 10.9806 9.46384C11.0453 9.38579 11.0852 9.29016 11.0952 9.18924C11.0914 9.16059 11.0411 9.12276 11.0227 9.10762C10.95 9.05502 10.8915 8.98512 10.8525 8.90425C10.8135 8.82337 10.7953 8.73406 10.7995 8.64438C10.8195 8.23784 10.9887 7.85295 11.2746 7.5633C11.2199 7.4806 11.159 7.40218 11.0925 7.3287C11.0114 7.24211 10.9611 7.13127 10.9493 7.01328C10.9375 6.89528 10.9648 6.77667 11.027 6.67573L11.2065 6.38708C11.2708 5.89303 11.5714 4.22492 12.7741 3.41032C13.0898 3.20333 13.4439 3.06204 13.8154 2.9949C14.1869 2.92775 14.5681 2.93612 14.9362 3.01951C15.2253 2.33878 15.7058 1.75665 16.3195 1.34384C17.4433 0.590864 18.9557 0.39735 20.8184 0.76762C25.5714 1.71843 26.6952 3.44762 27.2973 4.57627C27.7116 4.74675 28.054 5.05566 28.266 5.45032C28.4153 5.7617 28.4562 6.11409 28.3822 6.4514C28.7575 6.83346 29.0166 7.31429 29.1292 7.83789C29.3206 8.67789 29.2135 12.5525 26.7054 14.5579C26.6206 14.6255 26.5175 14.6661 26.4093 14.6743C26.3012 14.6825 26.193 14.658 26.099 14.604C26.005 14.5499 25.9294 14.4689 25.882 14.3713C25.8347 14.2737 25.8178 14.1641 25.8335 14.0568C25.8649 13.8442 25.8905 13.6348 25.9103 13.4287C25.9495 13.0066 25.9009 12.5809 25.7676 12.1785C25.6343 11.7761 25.4191 11.4056 25.1357 11.0903C24.8522 10.7751 24.5066 10.5219 24.1205 10.3468C23.7345 10.1716 23.3163 10.0782 22.8925 10.0725C21.4501 10.0309 20.0387 9.6435 18.7773 8.94276L18.6481 8.87465C18.1825 8.63143 17.6617 8.51324 17.1367 8.53162C16.6117 8.55 16.1005 8.70433 15.653 8.97951C15.198 9.25364 14.822 9.64129 14.5619 10.1045C14.3017 10.5676 14.1664 11.0905 14.1692 11.6217V14.2973C14.1692 14.4053 14.1368 14.5108 14.0763 14.6002C14.0158 14.6896 13.9299 14.7588 13.8297 14.799C13.7659 14.8248 13.6976 14.8381 13.6287 14.8379ZM11.9422 9.9687C12.0831 10.9867 12.4771 11.9531 13.0881 12.7795V11.6217C13.0871 10.909 13.2693 10.208 13.6173 9.58604C13.9653 8.96409 14.4674 8.44207 15.0753 8.07014C15.6833 7.69821 16.3767 7.48886 17.0888 7.46219C17.801 7.43553 18.5081 7.59246 19.1422 7.91789L19.2849 7.99303C20.3946 8.61183 21.6365 8.95549 22.9065 8.99519C23.9155 9.00899 24.885 9.38966 25.6339 10.0661C26.3827 10.7425 26.8597 11.6684 26.9757 12.6709C27.8201 11.2894 28.2031 9.67518 28.0692 8.06167C27.9673 7.66415 27.7442 7.30822 27.4308 7.0433C27.3409 6.97023 27.2767 6.87037 27.2476 6.75826C27.2184 6.64615 27.2258 6.52766 27.2687 6.42005C27.3103 6.34562 27.3344 6.26263 27.339 6.17745C27.3435 6.09228 27.3286 6.00718 27.2952 5.9287C27.1688 5.73949 26.9815 5.59927 26.7643 5.5314C26.694 5.511 26.6286 5.47652 26.572 5.43006C26.5154 5.3836 26.4689 5.32613 26.4352 5.26113C25.9081 4.25249 25.1141 2.73194 20.6087 1.83086C19.0411 1.51951 17.8011 1.65735 16.9287 2.24384C16.3899 2.60296 15.9985 3.14407 15.826 3.76816C15.8113 3.8426 15.7812 3.91312 15.7375 3.97514C15.6938 4.03716 15.6376 4.08929 15.5724 4.12814C15.5072 4.167 15.4346 4.1917 15.3593 4.20064C15.284 4.20958 15.2076 4.20257 15.1352 4.18005C14.8542 4.0638 14.5501 4.01442 14.2469 4.03581C13.9436 4.0572 13.6494 4.14877 13.3876 4.3033C12.4227 4.95194 12.2725 6.59735 12.2708 6.61411C12.2636 6.69942 12.2364 6.78183 12.1914 6.85465L12.1497 6.92167C12.3545 7.17947 12.4501 7.50719 12.4162 7.83465C12.3923 7.95265 12.3407 8.06325 12.2654 8.15726C12.1902 8.25127 12.0937 8.32598 11.9838 8.37519C11.957 8.40648 11.9376 8.44344 11.927 8.4833C12.0608 8.64859 12.1452 8.84835 12.1703 9.05951C12.1969 9.37947 12.1167 9.69923 11.9422 9.9687ZM11.5135 7.40546L11.4979 7.41357L11.5135 7.40546Z" fill="#0183CE"/>
<path d="M20.0141 23.6287C17.8724 23.5708 16.4308 22.0476 15.0368 20.5746C14.8876 20.4168 14.7384 20.2589 14.5886 20.1038C13.5845 19.0284 13.0456 17.5999 13.0892 16.1292V14.1373C13.0892 13.9939 13.1461 13.8565 13.2475 13.7551C13.3489 13.6537 13.4864 13.5968 13.6297 13.5968C13.7731 13.5968 13.9106 13.6537 14.0119 13.7551C14.1133 13.8565 14.1703 13.9939 14.1703 14.1373V16.1681C14.1444 17.3438 14.5733 18.4841 15.3676 19.3514C15.5195 19.5092 15.6708 19.6692 15.8222 19.8292C17.1195 21.2027 18.3497 22.5 20.0141 22.546C21.6487 22.5 22.8789 21.2027 24.1762 19.8287C24.3276 19.6692 24.4789 19.5092 24.6303 19.3514C25.4183 18.4937 25.8477 17.3667 25.8303 16.2022V14.1351C25.8303 13.9918 25.8872 13.8543 25.9886 13.7529C26.09 13.6516 26.2275 13.5946 26.3708 13.5946C26.5142 13.5946 26.6517 13.6516 26.753 13.7529C26.8544 13.8543 26.9114 13.9918 26.9114 14.1351V16.166C26.9457 17.6238 26.4067 19.0369 25.4103 20.1016C25.2605 20.2568 25.1119 20.4146 24.9627 20.5719C23.5676 22.0476 22.1265 23.5708 20.0141 23.6287Z" fill="#0183CE"/>
<path d="M13.3876 16.8919C12.2838 16.8919 11.3876 15.8108 11.3876 14.4832C11.3809 14.1226 11.4491 13.7645 11.5877 13.4316C11.7263 13.0986 11.9324 12.798 12.193 12.5486C12.2999 12.4531 12.4405 12.4039 12.5837 12.412C12.7268 12.42 12.861 12.4847 12.9565 12.5916C13.0521 12.6986 13.1012 12.8391 13.0931 12.9823C13.0851 13.1254 13.0205 13.2596 12.9135 13.3551C12.7659 13.5025 12.6502 13.6788 12.5736 13.8728C12.4971 14.0669 12.4614 14.2747 12.4687 14.4832C12.4687 15.253 12.9768 15.8886 13.4914 15.8021C13.6328 15.7784 13.7779 15.8118 13.8946 15.8951C14.0114 15.9783 14.0903 16.1045 14.1141 16.2459C14.1378 16.3874 14.1044 16.5324 14.0211 16.6492C13.9379 16.766 13.8117 16.8449 13.6703 16.8686C13.5769 16.8841 13.4823 16.8919 13.3876 16.8919Z" fill="#0183CE"/>
<path d="M26.6108 16.8919C26.5165 16.8919 26.4222 16.8839 26.3292 16.8681C26.1889 16.8431 26.0641 16.7637 25.9821 16.6472C25.9 16.5307 25.8673 16.3865 25.891 16.2459C25.9148 16.1054 25.993 15.9799 26.1088 15.8968C26.2246 15.8137 26.3685 15.7797 26.5092 15.8021C27.0211 15.8892 27.5314 15.253 27.5314 14.4832C27.5388 14.2748 27.5031 14.067 27.4267 13.8729C27.3503 13.6788 27.2346 13.5025 27.087 13.3551C27.0341 13.3078 26.991 13.2505 26.9602 13.1866C26.9293 13.1226 26.9114 13.0532 26.9074 12.9823C26.8994 12.8391 26.9485 12.6986 27.0441 12.5916C27.1396 12.4847 27.2737 12.42 27.4169 12.412C27.5601 12.4039 27.7006 12.4531 27.8076 12.5486C28.068 12.7981 28.274 13.0987 28.4125 13.4317C28.551 13.7646 28.6191 14.1227 28.6125 14.4832C28.6125 15.8113 27.7146 16.8919 26.6108 16.8919Z" fill="#0183CE"/>
<path d="M17.6708 29.1622C17.6552 29.1622 17.6389 29.1622 17.6227 29.1622C17.5407 29.1548 17.4614 29.1288 17.3909 29.0861C17.3205 29.0433 17.2607 28.9851 17.2162 28.9157L14.7633 25.0919C14.7043 25.0001 14.6746 24.8925 14.6779 24.7833C14.6813 24.6742 14.7177 24.5687 14.7822 24.4806L15.7011 23.2309C15.7833 23.1187 15.9055 23.0425 16.0425 23.0181C16.1794 22.9938 16.3204 23.0231 16.4362 23.1001L20.3006 25.6714C20.3652 25.715 20.4195 25.7721 20.46 25.8387C20.5004 25.9054 20.526 25.9799 20.535 26.0574C20.5439 26.1348 20.536 26.2132 20.5118 26.2873C20.4875 26.3614 20.4476 26.4294 20.3946 26.4865L18.0665 28.9892C18.016 29.0437 17.9548 29.0872 17.8867 29.117C17.8186 29.1467 17.7451 29.1621 17.6708 29.1622ZM15.8735 24.8184L17.7498 27.7433L19.1703 26.2163L16.2654 24.2838L15.8735 24.8184Z" fill="#0183CE"/>
<path d="M22.3271 29.1621C22.2528 29.1621 22.1793 29.1468 22.1113 29.1171C22.0432 29.0874 21.9819 29.0441 21.9314 28.9897L19.6038 26.4864C19.5505 26.4291 19.5102 26.3609 19.4858 26.2864C19.4615 26.212 19.4535 26.1332 19.4626 26.0554C19.4717 25.9776 19.4976 25.9027 19.5385 25.836C19.5794 25.7692 19.6343 25.7121 19.6995 25.6686L23.5638 23.0972C23.6796 23.0203 23.8207 22.991 23.9576 23.0153C24.0945 23.0397 24.2168 23.1159 24.2989 23.2281L25.2179 24.4778C25.2825 24.5658 25.3189 24.6713 25.3224 24.7804C25.3259 24.8896 25.2962 24.9972 25.2373 25.0891L22.7822 28.9135C22.7377 28.9828 22.6779 29.0411 22.6075 29.0838C22.537 29.1265 22.4578 29.1526 22.3757 29.16C22.3595 29.161 22.3433 29.1621 22.3271 29.1621ZM20.8281 26.2162L22.2487 27.7427L24.1249 24.8178L23.733 24.2837L20.8281 26.2162Z" fill="#0183CE"/>
<path d="M33.1773 39.6487H6.28215C5.75172 39.6487 5.24301 39.438 4.86794 39.0629C4.49286 38.6878 4.28215 38.1791 4.28215 37.6487V32.8254C4.27677 31.305 4.76121 29.8233 5.6637 28.5997C6.5662 27.3761 7.83878 26.4758 9.29296 26.0319L15.1621 24.3152C15.2998 24.2749 15.4477 24.291 15.5735 24.3599C15.6992 24.4288 15.7925 24.5448 15.8327 24.6825C15.8729 24.8201 15.8568 24.968 15.7879 25.0938C15.719 25.2195 15.603 25.3128 15.4654 25.353L9.60539 27.067C8.37397 27.4445 7.2967 28.2082 6.53284 29.2452C5.76898 30.2822 5.35909 31.5375 5.36377 32.8254V37.6487C5.36377 37.8924 5.46058 38.1261 5.63292 38.2984C5.80525 38.4708 6.03898 38.5676 6.28269 38.5676H33.1773C33.421 38.5676 33.6547 38.4708 33.8271 38.2984C33.9994 38.1261 34.0962 37.8924 34.0962 37.6487V32.2849C34.1008 30.9955 33.69 29.739 32.9245 28.7014C32.1591 27.6639 31.0798 26.9005 29.8465 26.5243L24.6643 25.3892C24.5243 25.3585 24.4021 25.2735 24.3248 25.1527C24.2474 25.032 24.2212 24.8855 24.2519 24.7454C24.2826 24.6054 24.3676 24.4832 24.4884 24.4059C24.6091 24.3285 24.7556 24.3023 24.8957 24.333L30.1216 25.4773C31.5851 25.9154 32.8679 26.8146 33.7788 28.0409C34.6898 29.2672 35.1801 30.7551 35.1767 32.2827V37.6487C35.1767 38.179 34.9661 38.6876 34.5912 39.0627C34.2162 39.4377 33.7076 39.6485 33.1773 39.6487Z" fill="#0183CE"/>
<path d="M20 26.6573C19.8934 26.6575 19.7892 26.6261 19.7005 26.567L15.8378 24C15.7519 23.9428 15.6842 23.8622 15.6426 23.7678C15.601 23.6733 15.5874 23.5689 15.6032 23.467L15.9584 21.1967C15.9685 21.1259 15.9927 21.0578 16.0293 20.9964C16.066 20.935 16.1145 20.8815 16.172 20.839C16.2295 20.7965 16.2949 20.7658 16.3644 20.7487C16.4338 20.7316 16.506 20.7285 16.5766 20.7395C16.6473 20.7505 16.7151 20.7755 16.7761 20.8129C16.837 20.8503 16.89 20.8994 16.9318 20.9574C16.9736 21.0154 17.0035 21.0812 17.0198 21.1508C17.036 21.2205 17.0383 21.2927 17.0265 21.3632L16.7243 23.2945L20 25.4681L23.2778 23.2897L22.973 21.3589C22.9611 21.2883 22.9634 21.2161 22.9796 21.1465C22.9959 21.0768 23.0258 21.0111 23.0676 20.9531C23.1095 20.8951 23.1624 20.846 23.2234 20.8086C23.2843 20.7712 23.3521 20.7462 23.4228 20.7352C23.4934 20.7242 23.5656 20.7273 23.635 20.7444C23.7045 20.7615 23.7699 20.7921 23.8274 20.8347C23.8849 20.8772 23.9334 20.9307 23.9701 20.9921C24.0068 21.0535 24.0309 21.1216 24.0411 21.1924L24.3962 23.4627C24.4122 23.5647 24.3985 23.6692 24.357 23.7637C24.3154 23.8583 24.2476 23.9389 24.1616 23.9962L20.2962 26.5643C20.2087 26.6236 20.1057 26.6559 20 26.6573Z" fill="#0183CE"/>
<path d="M31.2378 34.6054C31.1977 34.6061 31.1577 34.6025 31.1184 34.5946L30.2384 34.3951C30.1678 34.3808 30.1007 34.3526 30.0412 34.312C29.9817 34.2714 29.9309 34.2194 29.8918 34.1589C29.8526 34.0984 29.826 34.0307 29.8134 33.9598C29.8008 33.8888 29.8026 33.8161 29.8185 33.7459C29.8344 33.6756 29.8642 33.6092 29.9062 33.5507C29.9481 33.4921 30.0013 33.4425 30.0627 33.4048C30.1241 33.3671 30.1924 33.342 30.2636 33.3311C30.3348 33.3201 30.4074 33.3235 30.4773 33.3411L30.8297 33.4205L31.2157 31.7178C31.2797 31.4596 31.2915 31.1912 31.2504 30.9283C31.2094 30.6654 31.1163 30.4133 30.9766 30.1869C30.837 29.9604 30.6535 29.7641 30.437 29.6095C30.2205 29.4548 29.9753 29.3449 29.7158 29.2861C29.4563 29.2274 29.1877 29.2211 28.9257 29.2674C28.6637 29.3138 28.4136 29.412 28.19 29.5563C27.9665 29.7005 27.7739 29.8879 27.6237 30.1075C27.4735 30.3271 27.3686 30.5745 27.3151 30.8351L26.9297 32.5373L27.2822 32.6173C27.422 32.6489 27.5436 32.7348 27.6201 32.856C27.6966 32.9773 27.7219 33.1239 27.6903 33.2638C27.6587 33.4036 27.5728 33.5252 27.4515 33.6017C27.3303 33.6783 27.1836 33.7035 27.0438 33.6719L26.1622 33.4703C26.0927 33.4546 26.0271 33.4253 25.969 33.3842C25.9109 33.3431 25.8615 33.2909 25.8236 33.2306C25.7858 33.1703 25.7602 33.1032 25.7483 33.033C25.7365 32.9628 25.7386 32.891 25.7546 32.8216L26.2595 30.5914C26.3489 30.1967 26.5153 29.8235 26.749 29.4931C26.9827 29.1627 27.2792 28.8816 27.6215 28.6658C27.9639 28.45 28.3454 28.3037 28.7442 28.2353C29.1431 28.167 29.5515 28.1778 29.9462 28.2673C30.3409 28.3568 30.7141 28.5231 31.0445 28.7568C31.3749 28.9905 31.656 29.287 31.8718 29.6294C32.0876 29.9717 32.2339 30.3532 32.3022 30.7521C32.3706 31.151 32.3597 31.5594 32.2703 31.9541L31.7654 34.1838C31.7384 34.3034 31.6716 34.4103 31.5758 34.487C31.48 34.5636 31.361 34.6053 31.2384 34.6054H31.2378Z" fill="#0183CE"/>
<path d="M9.79408 30.1838C9.67114 30.1836 9.55192 30.1416 9.45611 30.0645C9.3603 29.9875 9.29361 29.8801 9.26706 29.76L8.60706 26.7763C8.59173 26.7069 8.5902 26.6353 8.60256 26.5654C8.61492 26.4955 8.64093 26.4287 8.6791 26.3688C8.71727 26.309 8.76686 26.2572 8.82503 26.2165C8.8832 26.1758 8.94882 26.147 9.01814 26.1317C9.08745 26.1163 9.15911 26.1148 9.22902 26.1272C9.29893 26.1395 9.36572 26.1655 9.42557 26.2037C9.48543 26.2419 9.53718 26.2915 9.57787 26.3496C9.61856 26.4078 9.6474 26.4734 9.66273 26.5427L10.3227 29.5265C10.3536 29.6665 10.3276 29.813 10.2505 29.9339C10.1734 30.0547 10.0514 30.1399 9.91138 30.1708C9.8729 30.1796 9.83355 30.184 9.79408 30.1838Z" fill="#0183CE"/>
<path d="M29.8546 29.3405C29.8155 29.3403 29.7766 29.3362 29.7384 29.3281C29.669 29.3129 29.6033 29.2842 29.5451 29.2436C29.4868 29.203 29.4371 29.1514 29.3988 29.0916C29.3605 29.0318 29.3344 28.9651 29.3219 28.8952C29.3094 28.8253 29.3107 28.7536 29.326 28.6843L29.9043 26.041C29.935 25.901 30.0201 25.7788 30.1408 25.7015C30.2615 25.6242 30.408 25.5979 30.5481 25.6286C30.6882 25.6593 30.8103 25.7444 30.8877 25.8651C30.965 25.9858 30.9912 26.1323 30.9605 26.2724L30.3822 28.9156C30.3558 29.036 30.2891 29.1437 30.1932 29.2209C30.0972 29.2982 29.9778 29.3404 29.8546 29.3405Z" fill="#0183CE"/>
<path d="M10.5741 33.9886C10.075 33.9887 9.58711 33.8408 9.17209 33.5636C8.75708 33.2864 8.43358 32.8924 8.24252 32.4314C8.05146 31.9703 8.00141 31.4629 8.09871 30.9735C8.19601 30.484 8.43628 30.0343 8.78914 29.6814C9.142 29.3284 9.5916 29.0881 10.0811 28.9907C10.5706 28.8933 11.0779 28.9432 11.539 29.1342C12.0001 29.3251 12.3942 29.6485 12.6715 30.0635C12.9488 30.4784 13.0968 30.9663 13.0968 31.4654C13.0962 32.1343 12.8303 32.7757 12.3573 33.2488C11.8843 33.7218 11.243 33.9879 10.5741 33.9886ZM10.5741 30.0238C10.2888 30.0237 10.0099 30.1082 9.77265 30.2666C9.53541 30.425 9.35048 30.6502 9.24126 30.9138C9.13204 31.1773 9.10343 31.4673 9.15906 31.7471C9.21469 32.0269 9.35205 32.284 9.55377 32.4857C9.7555 32.6874 10.0125 32.8248 10.2923 32.8804C10.5721 32.936 10.8621 32.9074 11.1257 32.7982C11.3892 32.689 11.6145 32.504 11.7729 32.2668C11.9313 32.0296 12.0158 31.7507 12.0157 31.4654C12.0153 31.0832 11.8632 30.7167 11.593 30.4465C11.3227 30.1762 10.9563 30.0242 10.5741 30.0238Z" fill="#0183CE"/>
<path d="M10.5741 32.2822C11.0252 32.2822 11.3908 31.9165 11.3908 31.4654C11.3908 31.0144 11.0252 30.6487 10.5741 30.6487C10.123 30.6487 9.75732 31.0144 9.75732 31.4654C9.75732 31.9165 10.123 32.2822 10.5741 32.2822Z" fill="#0183CE"/>
<path d="M10.5741 32.5529C10.3589 32.5531 10.1486 32.4894 9.9697 32.3699C9.79078 32.2505 9.6513 32.0807 9.5689 31.8819C9.48651 31.6832 9.46489 31.4645 9.50679 31.2535C9.5487 31.0425 9.65223 30.8487 9.80431 30.6965C9.95639 30.5444 10.1502 30.4408 10.3612 30.3987C10.5721 30.3567 10.7908 30.3782 10.9896 30.4605C11.1884 30.5428 11.3582 30.6822 11.4778 30.8611C11.5973 31.04 11.6611 31.2503 11.6611 31.4654C11.6608 31.7536 11.5462 32.03 11.3424 32.2339C11.1387 32.4378 10.8623 32.5525 10.5741 32.5529ZM10.5741 30.9189C10.4658 30.9188 10.36 30.9508 10.27 31.0109C10.1799 31.0709 10.1097 31.1564 10.0682 31.2563C10.0268 31.3563 10.0159 31.4663 10.037 31.5725C10.0581 31.6787 10.1102 31.7762 10.1867 31.8527C10.2633 31.9293 10.3608 31.9814 10.4669 32.0025C10.5731 32.0236 10.6831 32.0127 10.7831 31.9712C10.8831 31.9297 10.9685 31.8595 11.0286 31.7695C11.0887 31.6795 11.1207 31.5736 11.1206 31.4654C11.1204 31.3205 11.0628 31.1816 10.9603 31.0791C10.8579 30.9767 10.719 30.919 10.5741 30.9189Z" fill="#0183CE"/>
</svg>
