<svg width="60" height="61" viewBox="0 0 60 61" fill="none" xmlns="http://www.w3.org/2000/svg">
<g clip-path="url(#clip0_1_951)">
<g clip-path="url(#clip1_1_951)">
<g clip-path="url(#clip2_1_951)">
<path d="M12.1587 40.7141C18.0991 47.7882 25.25 53.3581 33.4118 57.2992C36.5193 58.7663 40.675 60.5069 45.305 60.8052C45.5921 60.8177 45.8666 60.8301 46.1537 60.8301C49.2611 60.8301 51.7571 59.7609 53.7913 57.5603C53.8038 57.5479 53.8287 57.523 53.8412 57.4981C54.565 56.6279 55.3887 55.8446 56.2498 55.0116C56.8364 54.4521 57.4354 53.8678 58.0095 53.271C60.6677 50.511 60.6677 47.005 57.9845 44.332L50.4841 36.8599C49.2112 35.5421 47.6887 34.8458 46.0913 34.8458C44.4939 34.8458 42.9588 35.5421 41.6485 36.8475L37.1807 41.2984C36.7689 41.0622 36.3446 40.8508 35.9452 40.6519C35.446 40.4032 34.9843 40.167 34.5724 39.9059C30.504 37.3324 26.81 33.9756 23.2782 29.6614C21.4936 27.4111 20.2955 25.5214 19.4594 23.5943C20.6325 22.5375 21.7307 21.431 22.7915 20.3494C23.1659 19.964 23.5528 19.5785 23.9396 19.1931C25.2875 17.8504 26.0113 16.2963 26.0113 14.7174C26.0113 13.1384 25.2999 11.5843 23.9396 10.2416L20.2207 6.53667C19.7839 6.10153 19.372 5.67882 18.9477 5.24367C18.1241 4.39825 17.263 3.52797 16.4143 2.74471C15.1289 1.48901 13.6189 0.830078 12.0215 0.830078C10.4365 0.830078 8.91399 1.48901 7.57865 2.75714L2.91121 7.40696C1.21396 9.0978 0.253014 11.1492 0.0533374 13.5238C-0.183778 16.4952 0.365332 19.6531 1.78803 23.47C3.97199 29.3755 7.26665 34.8583 12.1587 40.7141ZM3.09841 13.7849C3.24816 12.1314 3.88463 10.7513 5.08269 9.5578L9.72517 4.93286C10.449 4.23663 11.2477 3.87608 12.0215 3.87608C12.7827 3.87608 13.5565 4.23663 14.2678 4.95772C15.104 5.72855 15.8902 6.53667 16.7388 7.39452C17.1631 7.82967 17.5999 8.26481 18.0367 8.71238L21.7557 12.4173C22.5294 13.1882 22.9288 13.9714 22.9288 14.7422C22.9288 15.5131 22.5294 16.2963 21.7557 17.0672C21.3688 17.4526 20.9819 17.8504 20.5951 18.2358C19.4344 19.4045 18.3487 20.511 17.1506 21.5678C17.1257 21.5926 17.1132 21.6051 17.0882 21.6299C16.0524 22.6618 16.2147 23.644 16.4643 24.39C16.4767 24.4273 16.4892 24.4521 16.5017 24.4894C17.4626 26.7895 18.798 28.9776 20.8821 31.5885C24.626 36.1886 28.5696 39.7567 32.9126 42.5044C33.4492 42.8525 34.0233 43.126 34.5599 43.3995C35.0591 43.6482 35.5209 43.8844 35.9327 44.1455C35.9826 44.1703 36.0201 44.1952 36.07 44.2201C36.4818 44.4314 36.8812 44.5309 37.2805 44.5309C38.2789 44.5309 38.9279 43.8968 39.14 43.6855L43.8075 39.0357C44.5313 38.3146 45.3175 37.9291 46.0913 37.9291C47.0397 37.9291 47.8135 38.5135 48.3002 39.0357L55.8255 46.5201C57.3231 48.012 57.3106 49.6283 55.7881 51.2072C55.2639 51.7667 54.7148 52.3013 54.1282 52.8608C53.2547 53.7062 52.3436 54.5765 51.52 55.5587C50.0848 57.1003 48.3751 57.8214 46.1661 57.8214C45.954 57.8214 45.7294 57.809 45.5172 57.7965C41.4238 57.5354 37.6175 55.9441 34.7596 54.5889C26.9972 50.8467 20.1832 45.5379 14.5299 38.7994C9.87493 33.2172 6.7425 28.0203 4.67086 22.4505C3.38544 19.0315 2.89873 16.2839 3.09841 13.7849Z" fill="#307BC4"/>
</g>
</g>
</g>
<defs>
<clipPath id="clip0_1_951">
<rect width="60" height="60" fill="white" transform="translate(0 0.830078)"/>
</clipPath>
<clipPath id="clip1_1_951">
<rect width="60" height="60" fill="white" transform="translate(0 0.830078)"/>
</clipPath>
<clipPath id="clip2_1_951">
<rect width="60" height="60" fill="white" transform="translate(0 0.830078)"/>
</clipPath>
</defs>
</svg>
